<?xml version="1.0" encoding="UTF-8" standalone="no"?>
<svg
   xmlns:dc="http://purl.org/dc/elements/1.1/"
   xmlns:cc="http://creativecommons.org/ns#"
   xmlns:rdf="http://www.w3.org/1999/02/22-rdf-syntax-ns#"
   xmlns:svg="http://www.w3.org/2000/svg"
   xmlns="http://www.w3.org/2000/svg"
   xmlns:sodipodi="http://sodipodi.sourceforge.net/DTD/sodipodi-0.dtd"
   xmlns:inkscape="http://www.inkscape.org/namespaces/inkscape"
   version="1.0"
   width="1280.1196pt"
   height="239.62071pt"
   viewBox="0 0 1280.1196 239.62071"
   preserveAspectRatio="xMidYMid meet"
   id="svg8"
   sodipodi:docname="Crown.svg"
   inkscape:version="1.0.1 (3bc2e813f5, 2020-09-07)">
  <defs
     id="defs12" />
  <sodipodi:namedview
     pagecolor="#ffffff"
     bordercolor="#666666"
     borderopacity="1"
     objecttolerance="10"
     gridtolerance="10"
     guidetolerance="10"
     inkscape:pageopacity="0"
     inkscape:pageshadow="2"
     inkscape:window-width="1920"
     inkscape:window-height="1017"
     id="namedview10"
     showgrid="true"
     inkscape:snap-bbox="true"
     inkscape:bbox-paths="true"
     inkscape:bbox-nodes="true"
     inkscape:snap-bbox-edge-midpoints="true"
     inkscape:snap-bbox-midpoints="true"
     inkscape:object-paths="true"
     inkscape:snap-intersection-paths="true"
     inkscape:snap-smooth-nodes="true"
     inkscape:snap-midpoints="true"
     inkscape:snap-object-midpoints="true"
     inkscape:snap-center="true"
     inkscape:snap-text-baseline="true"
     inkscape:snap-page="false"
     fit-margin-top="0"
     fit-margin-left="0"
     fit-margin-right="0"
     fit-margin-bottom="0"
     inkscape:zoom="0.43172184"
     inkscape:cx="1133.5127"
     inkscape:cy="474.04022"
     inkscape:window-x="-8"
     inkscape:window-y="-8"
     inkscape:window-maximized="1"
     inkscape:current-layer="svg8">
    <inkscape:grid
       type="xygrid"
       id="grid31"
       originx="-0.034073848"
       originy="-0.36292781" />
  </sodipodi:namedview>
  <metadata
     id="metadata2">
Created by potrace 1.15, written by Peter Selinger 2001-2017
<rdf:RDF>
  <cc:Work
     rdf:about="">
    <dc:format>image/svg+xml</dc:format>
    <dc:type
       rdf:resource="http://purl.org/dc/dcmitype/StillImage" />
    <dc:title></dc:title>
  </cc:Work>
</rdf:RDF>
</metadata>
  <g
     transform="matrix(0.03508047,0,0,-0.03508047,415.51185,239.8231)"
     fill="#000000"
     stroke="none"
     id="g6"
     style="fill:#550000">
    <path
       d="m 6227,6830 c -119,-19 -349,-89 -362,-110 -3,-4 36,-31 86,-60 90,-52 91,-52 125,-127 19,-42 34,-79 34,-84 0,-5 -50,-9 -111,-9 h -112 l -69,56 c -38,31 -75,53 -83,50 -20,-7 -93,-102 -121,-158 -95,-187 -61,-417 96,-648 50,-74 40,-79 123,67 l 52,93 h 99 c 97,0 98,0 92,-22 -3,-13 -6,-55 -6,-95 v -72 l -92,-47 c -277,-138 -427,-327 -428,-535 0,-106 61,-279 139,-394 12,-16 21,-33 21,-36 0,-3 -69,-9 -152,-12 -679,-29 -1507,-180 -2257,-413 l -173,-54 -59,55 c -87,80 -165,132 -344,230 -88,48 -193,110 -233,138 -96,66 -205,184 -270,293 l -51,87 v -189 c 0,-245 -11,-321 -90,-654 -34,-144 -51,-256 -51,-340 v -58 l -107,-57 c -223,-119 -420,-265 -600,-445 l -103,-102 -23,19 c -13,10 -69,56 -123,102 -190,160 -473,329 -734,439 -140,58 -320,125 -326,120 -2,-3 18,-39 45,-80 124,-191 275,-481 446,-858 53,-118 133,-289 177,-380 l 80,-165 3,-95 c 5,-181 76,-268 262,-318 l 68,-19 363,-537 363,-537 -16,-72 c -11,-46 -14,-88 -10,-117 18,-120 97,-215 209,-248 l 61,-19 142,-189 c 79,-104 148,-197 155,-207 12,-17 22,-16 208,12 1109,170 2085,271 3020,312 359,15 1485,6 1885,-15 908,-49 1776,-126 2788,-247 136,-16 258,-29 270,-29 19,0 46,39 162,231 77,127 146,234 155,238 8,5 31,11 51,14 90,13 184,84 223,167 27,59 27,165 0,235 l -20,50 356,526 355,526 60,7 c 232,24 312,140 275,398 -10,66 -10,66 36,165 173,372 605,1325 602,1328 -2,2 -26,-11 -54,-30 -99,-66 -233,-139 -499,-270 -278,-138 -413,-218 -500,-297 l -50,-45 -95,84 c -185,166 -361,286 -582,399 l -128,65 v 137 c 0,176 -17,287 -85,547 -62,239 -85,362 -85,446 0,33 -3,59 -7,58 -5,0 -30,-27 -56,-60 -72,-90 -148,-144 -297,-216 -74,-35 -163,-77 -196,-94 -125,-60 -289,-179 -435,-316 l -66,-62 -154,45 c -649,189 -1352,310 -2216,379 l -81,7 23,51 c 119,271 69,569 -128,754 -84,79 -202,151 -299,182 -41,14 -43,18 -54,144 l -6,77 h 98 l 99,-1 85,-69 84,-70 34,33 c 58,55 123,154 148,225 56,159 7,320 -148,487 l -55,59 -42,-67 -43,-67 h -109 -109 v 48 c 0,44 5,52 71,130 l 71,82 -54,24 c -79,35 -172,65 -252,82 -85,19 -308,27 -389,14 z M 5665,4163 c 0,-117 12,-163 67,-256 15,-26 28,-49 28,-51 0,-2 -32,7 -71,20 -125,42 -265,66 -394,67 -219,3 -373,-56 -494,-189 -98,-107 -146,-252 -145,-439 1,-178 11,-208 239,-695 151,-323 200,-532 176,-744 -6,-50 -9,-91 -8,-92 1,-2 41,5 87,16 226,50 394,168 484,339 56,106 77,197 83,356 6,155 18,192 73,239 60,50 126,29 162,-53 27,-61 29,-208 4,-301 -75,-276 -266,-504 -536,-640 -483,-242 -1093,-163 -1526,197 -150,126 -266,356 -251,499 10,94 52,129 116,95 67,-34 126,-148 156,-299 52,-257 239,-403 580,-452 39,-5 91,-10 117,-10 h 47 l -34,74 c -83,179 -96,286 -93,752 l 3,369 -28,90 c -165,534 -575,755 -1094,590 -42,-13 -79,-23 -80,-21 -4,4 -24,279 -20,281 1,1 74,20 162,43 705,182 1476,298 2100,315 50,2 90,4 90,5 0,1 0,-46 0,-105 z m 2230,61 c 602,-48 1084,-130 1531,-261 l 121,-35 -5,-141 c -2,-78 -6,-144 -8,-146 -2,-2 -12,3 -22,12 -26,24 -139,74 -207,92 -70,18 -226,21 -287,5 -297,-77 -526,-315 -645,-670 l -28,-85 v -455 c 0,-442 -1,-457 -22,-534 -13,-44 -38,-114 -57,-158 l -34,-78 h 37 c 60,0 222,28 296,50 227,70 373,222 404,420 29,183 120,328 200,318 45,-6 66,-50 66,-141 0,-335 -384,-677 -885,-789 -140,-31 -436,-33 -570,-5 -350,75 -623,266 -769,539 -147,273 -149,541 -5,588 25,9 40,8 70,-5 94,-39 110,-77 117,-280 7,-228 41,-336 134,-436 59,-63 123,-103 213,-134 60,-21 211,-55 240,-55 4,0 4,17 -1,38 -14,59 -10,254 5,329 31,145 70,234 279,634 141,269 170,378 148,552 -35,281 -186,462 -437,523 -149,37 -377,19 -575,-46 -50,-17 -93,-30 -95,-30 -2,0 12,28 31,63 58,105 79,252 49,332 -7,18 3,18 257,11 145,-3 350,-13 454,-22 z m 3028,-843 c 71,-42 180,-114 242,-161 113,-84 275,-225 275,-238 0,-4 -43,-7 -94,-8 -162,-2 -224,-46 -349,-251 -152,-252 -258,-514 -357,-883 -22,-85 -52,-195 -66,-243 -14,-49 -24,-90 -22,-92 8,-7 203,47 250,71 83,41 130,86 221,207 46,61 100,132 121,157 20,25 50,62 67,83 41,50 59,49 59,-5 0,-31 -12,-64 -41,-118 -162,-298 -330,-439 -585,-492 -85,-17 -124,-19 -274,-15 -149,4 -183,8 -230,27 -303,121 -443,300 -411,526 13,87 28,132 86,244 72,139 143,207 207,198 36,-5 34,-39 -11,-130 -22,-46 -55,-126 -73,-178 -29,-84 -32,-107 -33,-205 0,-126 14,-165 85,-234 36,-35 165,-111 188,-111 5,0 12,22 15,50 3,27 19,80 35,117 48,115 96,178 382,503 121,137 182,223 239,340 26,52 64,124 84,160 85,154 113,324 69,424 -54,121 -151,186 -334,225 l -78,17 47,77 47,77 56,-31 c 30,-17 113,-65 183,-108 z m -8647,24 c 19,-31 33,-59 30,-64 -3,-5 -27,-14 -53,-20 -80,-20 -207,-87 -257,-136 -144,-140 -134,-323 33,-615 11,-19 37,-69 57,-110 20,-41 55,-102 79,-135 41,-57 72,-94 313,-371 166,-191 237,-313 249,-431 3,-29 9,-53 12,-53 17,0 129,75 164,108 21,20 52,64 68,98 58,117 49,258 -27,455 -50,129 -43,213 15,194 53,-17 154,-184 190,-315 71,-257 -43,-453 -374,-641 l -60,-34 h -195 c -173,0 -205,3 -285,24 -218,57 -362,164 -502,371 -60,89 -103,181 -103,220 0,97 44,56 229,-211 136,-195 226,-261 432,-313 74,-19 249,-48 249,-41 0,1 -21,23 -47,51 -147,156 -240,330 -328,609 -123,393 -184,541 -290,700 -87,131 -145,165 -297,174 l -98,6 103,81 c 179,142 624,452 650,454 4,0 23,-25 43,-55 z"
       id="path4"
       style="fill:#550000" />
  </g>
  <rect
     style="fill:#550000;stroke-width:0.497868"
     id="rect14"
     width="415.99814"
     height="14.740885"
     x="0"
     y="119.81037" />
  <rect
     style="fill:#550000;stroke-width:0.497868"
     id="rect14-9"
     width="415.99814"
     height="14.740885"
     x="864.12146"
     y="119.81037" />
</svg>
